<?xml version="1.0" encoding="utf-8"?>
<!-- Generator: Adobe Illustrator 26.0.3, SVG Export Plug-In . SVG Version: 6.00 Build 0)  -->
<svg version="1.0" id="katman_1" xmlns="http://www.w3.org/2000/svg" xmlns:xlink="http://www.w3.org/1999/xlink" x="0px" y="0px"
	 viewBox="0 0 800 600" style="enable-background:new 0 0 800 600;" xml:space="preserve">
<style type="text/css">
	.st0{opacity:0.1;}
	.st1{fill:none;stroke:#828282;stroke-width:3.8653;}
	.st2{fill:url(#SVGID_1_);fill-opacity:0.8;}
	.st3{fill:none;stroke:url(#SVGID_00000029024710971517382010000004502142346410132112_);stroke-width:15.4611;}
	.st4{fill:none;stroke:url(#SVGID_00000122711379963459130670000011318273611621973178_);stroke-width:15.4611;}
	.st5{fill:none;stroke:url(#SVGID_00000024682131895414550220000011792830803600346770_);stroke-width:15.4611;}
	.st6{fill:none;stroke:url(#SVGID_00000091736479193310345940000001242870258515956617_);stroke-width:15.4611;}
	.st7{fill:none;stroke:url(#SVGID_00000023961418791106228060000001272675244881241010_);stroke-width:15.4611;stroke-opacity:0.5;}
	.st8{fill:url(#SVGID_00000119839159375058209010000000618377757954989731_);fill-opacity:0.7;}
	.st9{fill:url(#SVGID_00000176733955412632465630000003959148129311842436_);}
	.st10{fill:url(#SVGID_00000134236137641807094670000005953246537452081037_);}
	.st11{fill:url(#SVGID_00000152972012901367581200000013986884173187085999_);}
	.st12{fill:url(#SVGID_00000028285151277975576770000006038198278476185253_);fill-opacity:0.7;}
	.st13{fill:url(#SVGID_00000065795875665014802300000011481394982196501380_);}
	.st14{fill:url(#SVGID_00000005229089627151344040000001202062685466653584_);}
	.st15{fill:url(#SVGID_00000131325937379369038620000005465686827904902792_);}
	.st16{fill:url(#SVGID_00000159432633012172359130000017947777817143123076_);fill-opacity:0.7;}
	.st17{fill:url(#SVGID_00000178908415160569303410000007472823766901047433_);}
	.st18{fill:url(#SVGID_00000158730642367339228910000014458577490985884606_);}
	.st19{fill:url(#SVGID_00000094605303717488283950000012906932894403976107_);}
	
		.st20{fill-rule:evenodd;clip-rule:evenodd;fill:url(#SVGID_00000085212264639088161870000006667887474453250187_);fill-opacity:0.7;}
	.st21{fill-rule:evenodd;clip-rule:evenodd;fill:url(#SVGID_00000168819647531320885300000013275639327906193571_);}
	.st22{fill-rule:evenodd;clip-rule:evenodd;fill:url(#SVGID_00000083071001267523598820000000823404300307525788_);}
	.st23{fill-rule:evenodd;clip-rule:evenodd;fill:url(#SVGID_00000079464478170957787410000000686806123316080305_);}
</style>
<g>
	<g class="st0">
		<circle class="st1" cx="399.8" cy="299.6" r="249.3"/>
	</g>
	<g>
		
			<linearGradient id="SVGID_1_" gradientUnits="userSpaceOnUse" x1="736.0746" y1="-199.9883" x2="316.9355" y2="472.8625" gradientTransform="matrix(1 0 0 -1 -20.9449 604.3622)">
			<stop  offset="0" style="stop-color:#645AFF"/>
			<stop  offset="0.6376" style="stop-color:#E40C5B"/>
			<stop  offset="1" style="stop-color:#FF4C3B"/>
		</linearGradient>
		<circle class="st2" cx="399.8" cy="298.2" r="238.7"/>
		
			<linearGradient id="SVGID_00000036214742053768411110000010114200120945566113_" gradientUnits="userSpaceOnUse" x1="736.0746" y1="-199.9883" x2="316.9355" y2="472.8625" gradientTransform="matrix(1 0 0 -1 -20.9449 604.3622)">
			<stop  offset="0" style="stop-color:#645AFF"/>
			<stop  offset="0.6376" style="stop-color:#E40C5B"/>
			<stop  offset="1" style="stop-color:#FF4C3B"/>
		</linearGradient>
		
			<circle style="fill:none;stroke:url(#SVGID_00000036214742053768411110000010114200120945566113_);stroke-width:15.4611;" cx="399.8" cy="298.2" r="231"/>
	</g>
	<g>
		
			<linearGradient id="SVGID_00000062898347651149819810000009588620132481790135_" gradientUnits="userSpaceOnUse" x1="684.3386" y1="-118.9537" x2="332.6042" y2="445.6902" gradientTransform="matrix(1 0 0 -1 -20.9449 604.3622)">
			<stop  offset="0" style="stop-color:#645AFF"/>
			<stop  offset="0.6376" style="stop-color:#E40C5B"/>
			<stop  offset="1" style="stop-color:#FF4C3B"/>
		</linearGradient>
		
			<circle style="fill:none;stroke:url(#SVGID_00000062898347651149819810000009588620132481790135_);stroke-width:15.4611;" cx="398.8" cy="298.6" r="192.6"/>
		
			<linearGradient id="SVGID_00000000183070120166942550000010317887028289268922_" gradientUnits="userSpaceOnUse" x1="230.1403" y1="513.1338" x2="648.1806" y2="56.0115" gradientTransform="matrix(1 0 0 -1 -20.9449 604.3622)">
			<stop  offset="0" style="stop-color:#FFFFFF;stop-opacity:0.78"/>
			<stop  offset="1" style="stop-color:#FFFFFF;stop-opacity:0"/>
		</linearGradient>
		
			<circle style="fill:none;stroke:url(#SVGID_00000000183070120166942550000010317887028289268922_);stroke-width:15.4611;" cx="398.8" cy="298.6" r="192.6"/>
		
			<linearGradient id="SVGID_00000024683894786836478420000016343728740990779812_" gradientUnits="userSpaceOnUse" x1="619.0717" y1="434.3213" x2="88.6708" y2="92.3516" gradientTransform="matrix(1 0 0 -1 -20.9449 604.3622)">
			<stop  offset="0" style="stop-color:#FFFFFF;stop-opacity:0.76"/>
			<stop  offset="1" style="stop-color:#FFFFFF;stop-opacity:0"/>
		</linearGradient>
		
			<circle style="fill:none;stroke:url(#SVGID_00000024683894786836478420000016343728740990779812_);stroke-width:15.4611;" cx="398.8" cy="298.6" r="192.6"/>
		
			<linearGradient id="SVGID_00000058590015339003926960000014734629193829487038_" gradientUnits="userSpaceOnUse" x1="433.6378" y1="-91.1173" x2="412.6996" y2="506.9806" gradientTransform="matrix(1 0 0 -1 -20.9449 604.3622)">
			<stop  offset="0" style="stop-color:#FFFFFF"/>
			<stop  offset="1" style="stop-color:#FFFFFF;stop-opacity:0"/>
		</linearGradient>
		
			<circle style="fill:none;stroke:url(#SVGID_00000058590015339003926960000014734629193829487038_);stroke-width:15.4611;stroke-opacity:0.5;" cx="398.8" cy="298.6" r="192.6"/>
	</g>
</g>
<g>
	
		<linearGradient id="SVGID_00000093145741765202750110000016025660846132034981_" gradientUnits="userSpaceOnUse" x1="390.3144" y1="115.7853" x2="360.7256" y2="236.2872" gradientTransform="matrix(1 0 0 -1 -20.9449 604.3622)">
		<stop  offset="0" style="stop-color:#645AFF"/>
		<stop  offset="0.6376" style="stop-color:#E40C5B"/>
		<stop  offset="1" style="stop-color:#FF4C3B"/>
	</linearGradient>
	<path style="fill:url(#SVGID_00000093145741765202750110000016025660846132034981_);fill-opacity:0.7;" d="M366.7,353.3v41.6
		c0,4.7-1,8.8-3,12.3c-2,3.4-4.9,6.1-8.6,7.9c-3.8,1.8-8.2,2.7-13.3,2.7c-7.7,0-13.8-2-18.3-6c-4.5-4-6.7-9.5-6.8-16.5v-41.9h15.4
		v42.2c0.2,7,3.4,10.4,9.7,10.4c3.2,0,5.6-0.9,7.2-2.6c1.6-1.7,2.4-4.6,2.4-8.5v-41.5H366.7z"/>
	
		<linearGradient id="SVGID_00000023268809272928620950000010112616633818138779_" gradientUnits="userSpaceOnUse" x1="352.7442" y1="257.0937" x2="400.7683" y2="115.642" gradientTransform="matrix(1 0 0 -1 -20.9449 604.3622)">
		<stop  offset="0" style="stop-color:#FFFFFF;stop-opacity:0.88"/>
		<stop  offset="1" style="stop-color:#FFFFFF;stop-opacity:0"/>
	</linearGradient>
	<path style="fill:url(#SVGID_00000023268809272928620950000010112616633818138779_);" d="M366.7,353.3v41.6c0,4.7-1,8.8-3,12.3
		c-2,3.4-4.9,6.1-8.6,7.9c-3.8,1.8-8.2,2.7-13.3,2.7c-7.7,0-13.8-2-18.3-6c-4.5-4-6.7-9.5-6.8-16.5v-41.9h15.4v42.2
		c0.2,7,3.4,10.4,9.7,10.4c3.2,0,5.6-0.9,7.2-2.6c1.6-1.7,2.4-4.6,2.4-8.5v-41.5H366.7z"/>
	
		<linearGradient id="SVGID_00000016774669312962876820000008606626212896797350_" gradientUnits="userSpaceOnUse" x1="383.1641" y1="301.5207" x2="343.5933" y2="160.4014" gradientTransform="matrix(1 0 0 -1 -20.9449 604.3622)">
		<stop  offset="0" style="stop-color:#FFFFFF;stop-opacity:0.81"/>
		<stop  offset="1" style="stop-color:#FFFFFF;stop-opacity:0"/>
	</linearGradient>
	<path style="fill:url(#SVGID_00000016774669312962876820000008606626212896797350_);" d="M366.7,353.3v41.6c0,4.7-1,8.8-3,12.3
		c-2,3.4-4.9,6.1-8.6,7.9c-3.8,1.8-8.2,2.7-13.3,2.7c-7.7,0-13.8-2-18.3-6c-4.5-4-6.7-9.5-6.8-16.5v-41.9h15.4v42.2
		c0.2,7,3.4,10.4,9.7,10.4c3.2,0,5.6-0.9,7.2-2.6c1.6-1.7,2.4-4.6,2.4-8.5v-41.5H366.7z"/>
	
		<linearGradient id="SVGID_00000109722134881942986370000004573539548861357478_" gradientUnits="userSpaceOnUse" x1="362.63" y1="281.1784" x2="362.63" y2="153.8195" gradientTransform="matrix(1 0 0 -1 -20.9449 604.3622)">
		<stop  offset="0" style="stop-color:#FFFFFF;stop-opacity:0.6"/>
		<stop  offset="1" style="stop-color:#FFFFFF;stop-opacity:0"/>
	</linearGradient>
	<path style="fill:url(#SVGID_00000109722134881942986370000004573539548861357478_);" d="M366.7,353.3v41.6c0,4.7-1,8.8-3,12.3
		c-2,3.4-4.9,6.1-8.6,7.9c-3.8,1.8-8.2,2.7-13.3,2.7c-7.7,0-13.8-2-18.3-6c-4.5-4-6.7-9.5-6.8-16.5v-41.9h15.4v42.2
		c0.2,7,3.4,10.4,9.7,10.4c3.2,0,5.6-0.9,7.2-2.6c1.6-1.7,2.4-4.6,2.4-8.5v-41.5H366.7z"/>
	
		<linearGradient id="SVGID_00000014607163522053255760000006662711139579803311_" gradientUnits="userSpaceOnUse" x1="442.7844" y1="128.6691" x2="413.1957" y2="249.171" gradientTransform="matrix(1 0 0 -1 -20.9449 604.3622)">
		<stop  offset="0" style="stop-color:#645AFF"/>
		<stop  offset="0.6376" style="stop-color:#E40C5B"/>
		<stop  offset="1" style="stop-color:#FF4C3B"/>
	</linearGradient>
	<path style="fill:url(#SVGID_00000014607163522053255760000006662711139579803311_);fill-opacity:0.7;" d="M409.1,400
		c0-2.2-0.8-4-2.4-5.2c-1.6-1.3-4.4-2.5-8.3-3.9c-4-1.3-7.2-2.6-9.8-3.9c-8.2-4-12.4-9.6-12.4-16.7c0-3.5,1-6.6,3.1-9.3
		c2.1-2.7,5-4.8,8.7-6.3c3.8-1.5,8-2.3,12.7-2.3c4.6,0,8.7,0.8,12.3,2.4c3.6,1.6,6.5,4,8.5,7c2,3,3,6.4,3,10.3h-15.3
		c0-2.6-0.8-4.6-2.4-6c-1.6-1.4-3.7-2.1-6.4-2.1c-2.7,0-4.9,0.6-6.5,1.8c-1.6,1.2-2.4,2.7-2.4,4.6c0,1.6,0.9,3.1,2.6,4.5
		c1.7,1.3,4.8,2.7,9.2,4.1c4.4,1.4,8,2.9,10.8,4.5c6.9,4,10.3,9.4,10.3,16.4c0,5.6-2.1,9.9-6.3,13.1c-4.2,3.2-9.9,4.8-17.3,4.8
		c-5.2,0-9.8-0.9-14-2.8c-4.2-1.9-7.3-4.4-9.4-7.6c-2.1-3.2-3.1-6.9-3.1-11.1h15.4c0,3.4,0.9,5.9,2.6,7.6c1.8,1.6,4.6,2.4,8.6,2.4
		c2.5,0,4.5-0.5,6-1.6C408.4,403.5,409.1,401.9,409.1,400z"/>
	
		<linearGradient id="SVGID_00000117659494327106420540000008796039294736344511_" gradientUnits="userSpaceOnUse" x1="402.0663" y1="273.839" x2="450.0905" y2="132.3873" gradientTransform="matrix(1 0 0 -1 -20.9449 604.3622)">
		<stop  offset="0" style="stop-color:#FFFFFF;stop-opacity:0.88"/>
		<stop  offset="1" style="stop-color:#FFFFFF;stop-opacity:0"/>
	</linearGradient>
	<path style="fill:url(#SVGID_00000117659494327106420540000008796039294736344511_);" d="M409.1,400c0-2.2-0.8-4-2.4-5.2
		c-1.6-1.3-4.4-2.5-8.3-3.9c-4-1.3-7.2-2.6-9.8-3.9c-8.2-4-12.4-9.6-12.4-16.7c0-3.5,1-6.6,3.1-9.3c2.1-2.7,5-4.8,8.7-6.3
		c3.8-1.5,8-2.3,12.7-2.3c4.6,0,8.7,0.8,12.3,2.4c3.6,1.6,6.5,4,8.5,7c2,3,3,6.4,3,10.3h-15.3c0-2.6-0.8-4.6-2.4-6
		c-1.6-1.4-3.7-2.1-6.4-2.1c-2.7,0-4.9,0.6-6.5,1.8c-1.6,1.2-2.4,2.7-2.4,4.6c0,1.6,0.9,3.1,2.6,4.5c1.7,1.3,4.8,2.7,9.2,4.1
		c4.4,1.4,8,2.9,10.8,4.5c6.9,4,10.3,9.4,10.3,16.4c0,5.6-2.1,9.9-6.3,13.1c-4.2,3.2-9.9,4.8-17.3,4.8c-5.2,0-9.8-0.9-14-2.8
		c-4.2-1.9-7.3-4.4-9.4-7.6c-2.1-3.2-3.1-6.9-3.1-11.1h15.4c0,3.4,0.9,5.9,2.6,7.6c1.8,1.6,4.6,2.4,8.6,2.4c2.5,0,4.5-0.5,6-1.6
		C408.4,403.5,409.1,401.9,409.1,400z"/>
	
		<linearGradient id="SVGID_00000005968049528180272590000012938361737628076457_" gradientUnits="userSpaceOnUse" x1="439.9585" y1="285.5952" x2="400.3878" y2="144.4758" gradientTransform="matrix(1 0 0 -1 -20.9449 604.3622)">
		<stop  offset="0" style="stop-color:#FFFFFF;stop-opacity:0.81"/>
		<stop  offset="1" style="stop-color:#FFFFFF;stop-opacity:0"/>
	</linearGradient>
	<path style="fill:url(#SVGID_00000005968049528180272590000012938361737628076457_);" d="M409.1,400c0-2.2-0.8-4-2.4-5.2
		c-1.6-1.3-4.4-2.5-8.3-3.9c-4-1.3-7.2-2.6-9.8-3.9c-8.2-4-12.4-9.6-12.4-16.7c0-3.5,1-6.6,3.1-9.3c2.1-2.7,5-4.8,8.7-6.3
		c3.8-1.5,8-2.3,12.7-2.3c4.6,0,8.7,0.8,12.3,2.4c3.6,1.6,6.5,4,8.5,7c2,3,3,6.4,3,10.3h-15.3c0-2.6-0.8-4.6-2.4-6
		c-1.6-1.4-3.7-2.1-6.4-2.1c-2.7,0-4.9,0.6-6.5,1.8c-1.6,1.2-2.4,2.7-2.4,4.6c0,1.6,0.9,3.1,2.6,4.5c1.7,1.3,4.8,2.7,9.2,4.1
		c4.4,1.4,8,2.9,10.8,4.5c6.9,4,10.3,9.4,10.3,16.4c0,5.6-2.1,9.9-6.3,13.1c-4.2,3.2-9.9,4.8-17.3,4.8c-5.2,0-9.8-0.9-14-2.8
		c-4.2-1.9-7.3-4.4-9.4-7.6c-2.1-3.2-3.1-6.9-3.1-11.1h15.4c0,3.4,0.9,5.9,2.6,7.6c1.8,1.6,4.6,2.4,8.6,2.4c2.5,0,4.5-0.5,6-1.6
		C408.4,403.5,409.1,401.9,409.1,400z"/>
	
		<linearGradient id="SVGID_00000054982768047127716420000017376758511563041200_" gradientUnits="userSpaceOnUse" x1="420.3531" y1="281.1784" x2="420.3531" y2="153.8195" gradientTransform="matrix(1 0 0 -1 -20.9449 604.3622)">
		<stop  offset="0" style="stop-color:#FFFFFF;stop-opacity:0.6"/>
		<stop  offset="1" style="stop-color:#FFFFFF;stop-opacity:0"/>
	</linearGradient>
	<path style="fill:url(#SVGID_00000054982768047127716420000017376758511563041200_);" d="M409.1,400c0-2.2-0.8-4-2.4-5.2
		c-1.6-1.3-4.4-2.5-8.3-3.9c-4-1.3-7.2-2.6-9.8-3.9c-8.2-4-12.4-9.6-12.4-16.7c0-3.5,1-6.6,3.1-9.3c2.1-2.7,5-4.8,8.7-6.3
		c3.8-1.5,8-2.3,12.7-2.3c4.6,0,8.7,0.8,12.3,2.4c3.6,1.6,6.5,4,8.5,7c2,3,3,6.4,3,10.3h-15.3c0-2.6-0.8-4.6-2.4-6
		c-1.6-1.4-3.7-2.1-6.4-2.1c-2.7,0-4.9,0.6-6.5,1.8c-1.6,1.2-2.4,2.7-2.4,4.6c0,1.6,0.9,3.1,2.6,4.5c1.7,1.3,4.8,2.7,9.2,4.1
		c4.4,1.4,8,2.9,10.8,4.5c6.9,4,10.3,9.4,10.3,16.4c0,5.6-2.1,9.9-6.3,13.1c-4.2,3.2-9.9,4.8-17.3,4.8c-5.2,0-9.8-0.9-14-2.8
		c-4.2-1.9-7.3-4.4-9.4-7.6c-2.1-3.2-3.1-6.9-3.1-11.1h15.4c0,3.4,0.9,5.9,2.6,7.6c1.8,1.6,4.6,2.4,8.6,2.4c2.5,0,4.5-0.5,6-1.6
		C408.4,403.5,409.1,401.9,409.1,400z"/>
	
		<linearGradient id="SVGID_00000168089112376529922480000017699587549981954973_" gradientUnits="userSpaceOnUse" x1="494.233" y1="141.302" x2="464.6443" y2="261.804" gradientTransform="matrix(1 0 0 -1 -20.9449 604.3622)">
		<stop  offset="0" style="stop-color:#645AFF"/>
		<stop  offset="0.6376" style="stop-color:#E40C5B"/>
		<stop  offset="1" style="stop-color:#FF4C3B"/>
	</linearGradient>
	<path style="fill:url(#SVGID_00000168089112376529922480000017699587549981954973_);fill-opacity:0.7;" d="M432.3,416.8v-63.6h20.5
		c5.6,0,10.7,1.3,15.2,3.8c4.5,2.5,8,6.1,10.5,10.8c2.5,4.6,3.8,9.8,3.8,15.6v2.9c0,5.8-1.2,11-3.7,15.7c-2.4,4.6-5.9,8.2-10.4,10.8
		c-4.5,2.6-9.4,3.9-14.9,3.9H432.3z M447.7,365.1v39.9h5.3c4.4,0,7.8-1.6,10.1-4.7c2.4-3.1,3.5-7.8,3.5-14v-2.8
		c0-6.1-1.2-10.8-3.5-13.9c-2.4-3.1-5.8-4.7-10.3-4.7H447.7z"/>
	
		<linearGradient id="SVGID_00000133505443390478131550000005058138445180032644_" gradientUnits="userSpaceOnUse" x1="450.0593" y1="290.1331" x2="498.0834" y2="148.6813" gradientTransform="matrix(1 0 0 -1 -20.9449 604.3622)">
		<stop  offset="0" style="stop-color:#FFFFFF;stop-opacity:0.88"/>
		<stop  offset="1" style="stop-color:#FFFFFF;stop-opacity:0"/>
	</linearGradient>
	<path style="fill:url(#SVGID_00000133505443390478131550000005058138445180032644_);" d="M432.3,416.8v-63.6h20.5
		c5.6,0,10.7,1.3,15.2,3.8c4.5,2.5,8,6.1,10.5,10.8c2.5,4.6,3.8,9.8,3.8,15.6v2.9c0,5.8-1.2,11-3.7,15.7c-2.4,4.6-5.9,8.2-10.4,10.8
		c-4.5,2.6-9.4,3.9-14.9,3.9H432.3z M447.7,365.1v39.9h5.3c4.4,0,7.8-1.6,10.1-4.7c2.4-3.1,3.5-7.8,3.5-14v-2.8
		c0-6.1-1.2-10.8-3.5-13.9c-2.4-3.1-5.8-4.7-10.3-4.7H447.7z"/>
	
		<linearGradient id="SVGID_00000132784020348421476110000002386481010321006997_" gradientUnits="userSpaceOnUse" x1="489.4211" y1="271.7256" x2="449.8503" y2="130.6062" gradientTransform="matrix(1 0 0 -1 -20.9449 604.3622)">
		<stop  offset="0" style="stop-color:#FFFFFF;stop-opacity:0.81"/>
		<stop  offset="1" style="stop-color:#FFFFFF;stop-opacity:0"/>
	</linearGradient>
	<path style="fill:url(#SVGID_00000132784020348421476110000002386481010321006997_);" d="M432.3,416.8v-63.6h20.5
		c5.6,0,10.7,1.3,15.2,3.8c4.5,2.5,8,6.1,10.5,10.8c2.5,4.6,3.8,9.8,3.8,15.6v2.9c0,5.8-1.2,11-3.7,15.7c-2.4,4.6-5.9,8.2-10.4,10.8
		c-4.5,2.6-9.4,3.9-14.9,3.9H432.3z M447.7,365.1v39.9h5.3c4.4,0,7.8-1.6,10.1-4.7c2.4-3.1,3.5-7.8,3.5-14v-2.8
		c0-6.1-1.2-10.8-3.5-13.9c-2.4-3.1-5.8-4.7-10.3-4.7H447.7z"/>
	
		<linearGradient id="SVGID_00000067952767258724749450000013344523592094331307_" gradientUnits="userSpaceOnUse" x1="478.2743" y1="281.1784" x2="478.2743" y2="153.8195" gradientTransform="matrix(1 0 0 -1 -20.9449 604.3622)">
		<stop  offset="0" style="stop-color:#FFFFFF;stop-opacity:0.6"/>
		<stop  offset="1" style="stop-color:#FFFFFF;stop-opacity:0"/>
	</linearGradient>
	<path style="fill:url(#SVGID_00000067952767258724749450000013344523592094331307_);" d="M432.3,416.8v-63.6h20.5
		c5.6,0,10.7,1.3,15.2,3.8c4.5,2.5,8,6.1,10.5,10.8c2.5,4.6,3.8,9.8,3.8,15.6v2.9c0,5.8-1.2,11-3.7,15.7c-2.4,4.6-5.9,8.2-10.4,10.8
		c-4.5,2.6-9.4,3.9-14.9,3.9H432.3z M447.7,365.1v39.9h5.3c4.4,0,7.8-1.6,10.1-4.7c2.4-3.1,3.5-7.8,3.5-14v-2.8
		c0-6.1-1.2-10.8-3.5-13.9c-2.4-3.1-5.8-4.7-10.3-4.7H447.7z"/>
	
		<linearGradient id="SVGID_00000114786115027065030690000009701969507728172181_" gradientUnits="userSpaceOnUse" x1="492.533" y1="181.4361" x2="368.6663" y2="403.306" gradientTransform="matrix(1 0 0 -1 -20.9449 604.3622)">
		<stop  offset="0" style="stop-color:#645AFF"/>
		<stop  offset="0.6376" style="stop-color:#E40C5B"/>
		<stop  offset="1" style="stop-color:#FF4C3B"/>
	</linearGradient>
	
		<path style="fill-rule:evenodd;clip-rule:evenodd;fill:url(#SVGID_00000114786115027065030690000009701969507728172181_);fill-opacity:0.7;" d="
		M399.8,280.3c-6.3,0-12.6,0.5-18.8,1.6l9.4-16.2c3.2-0.2,6.3-0.3,9.4-0.3c7.4,0,14.7,0.6,22,1.8l-36.2-62.7l-60.3,104.5l-8.6-14.9
		l68.8-119.2l0.1,0.2l0.1-0.2l83,143.8h-17.2L432,284.9C421.6,281.8,410.7,280.2,399.8,280.3L399.8,280.3z M474,309.1l-80.3-139.3
		h17.2l71.7,124.3L474,309.1z M394.3,238.5l-33,57.2c11.8-3.6,25.7-5.2,38.8-5.2c1.1,0,2.1,0,3.2,0c7.4,0.2,14.9,0.9,22.2,2.3
		l11,19.1c-11.6-4.3-24-6.5-36.4-6.5c-18.1-0.1-35.9,4.4-51.8,12.9l0.2-0.4l-0.3,0.6h-17.2l54.8-95L394.3,238.5z"/>
	
		<linearGradient id="SVGID_00000150824118497754197770000004326326690249757320_" gradientUnits="userSpaceOnUse" x1="335.6038" y1="433.0314" x2="509.4176" y2="207.8766" gradientTransform="matrix(1 0 0 -1 -20.9449 604.3622)">
		<stop  offset="0" style="stop-color:#FFFFFF;stop-opacity:0.88"/>
		<stop  offset="1" style="stop-color:#FFFFFF;stop-opacity:0"/>
	</linearGradient>
	<path style="fill-rule:evenodd;clip-rule:evenodd;fill:url(#SVGID_00000150824118497754197770000004326326690249757320_);" d="
		M399.8,280.3c-6.3,0-12.6,0.5-18.8,1.6l9.4-16.2c3.2-0.2,6.3-0.3,9.4-0.3c7.4,0,14.7,0.6,22,1.8l-36.2-62.7l-60.3,104.5l-8.6-14.9
		l68.8-119.2l0.1,0.2l0.1-0.2l83,143.8h-17.2L432,284.9C421.6,281.8,410.7,280.2,399.8,280.3L399.8,280.3z M474,309.1l-80.3-139.3
		h17.2l71.7,124.3L474,309.1z M394.3,238.5l-33,57.2c11.8-3.6,25.7-5.2,38.8-5.2c1.1,0,2.1,0,3.2,0c7.4,0.2,14.9,0.9,22.2,2.3
		l11,19.1c-11.6-4.3-24-6.5-36.4-6.5c-18.1-0.1-35.9,4.4-51.8,12.9l0.2-0.4l-0.3,0.6h-17.2l54.8-95L394.3,238.5z"/>
	
		<linearGradient id="SVGID_00000084500357343845909280000001099383875915023008_" gradientUnits="userSpaceOnUse" x1="515.2729" y1="463.2975" x2="358.1108" y2="216.7891" gradientTransform="matrix(1 0 0 -1 -20.9449 604.3622)">
		<stop  offset="0" style="stop-color:#FFFFFF;stop-opacity:0.81"/>
		<stop  offset="1" style="stop-color:#FFFFFF;stop-opacity:0"/>
	</linearGradient>
	<path style="fill-rule:evenodd;clip-rule:evenodd;fill:url(#SVGID_00000084500357343845909280000001099383875915023008_);" d="
		M399.8,280.3c-6.3,0-12.6,0.5-18.8,1.6l9.4-16.2c3.2-0.2,6.3-0.3,9.4-0.3c7.4,0,14.7,0.6,22,1.8l-36.2-62.7l-60.3,104.5l-8.6-14.9
		l68.8-119.2l0.1,0.2l0.1-0.2l83,143.8h-17.2L432,284.9C421.6,281.8,410.7,280.2,399.8,280.3L399.8,280.3z M474,309.1l-80.3-139.3
		h17.2l71.7,124.3L474,309.1z M394.3,238.5l-33,57.2c11.8-3.6,25.7-5.2,38.8-5.2c1.1,0,2.1,0,3.2,0c7.4,0.2,14.9,0.9,22.2,2.3
		l11,19.1c-11.6-4.3-24-6.5-36.4-6.5c-18.1-0.1-35.9,4.4-51.8,12.9l0.2-0.4l-0.3,0.6h-17.2l54.8-95L394.3,238.5z"/>
	
		<linearGradient id="SVGID_00000111161414235122207570000013506690115900167567_" gradientUnits="userSpaceOnUse" x1="420.5657" y1="501.1434" x2="420.5657" y2="211.045" gradientTransform="matrix(1 0 0 -1 -20.9449 604.3622)">
		<stop  offset="0" style="stop-color:#FFFFFF;stop-opacity:0.6"/>
		<stop  offset="1" style="stop-color:#FFFFFF;stop-opacity:0"/>
	</linearGradient>
	<path style="fill-rule:evenodd;clip-rule:evenodd;fill:url(#SVGID_00000111161414235122207570000013506690115900167567_);" d="
		M399.8,280.3c-6.3,0-12.6,0.5-18.8,1.6l9.4-16.2c3.2-0.2,6.3-0.3,9.4-0.3c7.4,0,14.7,0.6,22,1.8l-36.2-62.7l-60.3,104.5l-8.6-14.9
		l68.8-119.2l0.1,0.2l0.1-0.2l83,143.8h-17.2L432,284.9C421.6,281.8,410.7,280.2,399.8,280.3L399.8,280.3z M474,309.1l-80.3-139.3
		h17.2l71.7,124.3L474,309.1z M394.3,238.5l-33,57.2c11.8-3.6,25.7-5.2,38.8-5.2c1.1,0,2.1,0,3.2,0c7.4,0.2,14.9,0.9,22.2,2.3
		l11,19.1c-11.6-4.3-24-6.5-36.4-6.5c-18.1-0.1-35.9,4.4-51.8,12.9l0.2-0.4l-0.3,0.6h-17.2l54.8-95L394.3,238.5z"/>
</g>
</svg>
