<svg width="32" height="32" viewBox="0 0 32 32" fill="none" xmlns="http://www.w3.org/2000/svg">
<circle cx="16" cy="16" r="15" fill="#7B44E1" stroke="white" stroke-width="2"/>
<g clip-path="url(#clip0_812_4137)">
<mask id="mask0_812_4137" style="mask-type:luminance" maskUnits="userSpaceOnUse" x="6" y="5" width="20" height="22">
<path d="M25.6923 5.23077H6.30768V26.7692H25.6923V5.23077Z" fill="white"/>
</mask>
<g mask="url(#mask0_812_4137)">
<path d="M17.6245 17.6367L16.5639 20.4958C16.5326 20.5751 16.5326 20.6632 16.5639 20.7425L18.3851 25.6635L20.4928 24.4652L17.9646 17.6367C17.9063 17.4781 17.6826 17.4781 17.6245 17.6367Z" fill="white"/>
<path d="M19.7453 12.8258C19.6872 12.6673 19.4634 12.6673 19.4053 12.8258L18.3447 15.685C18.3134 15.7644 18.3134 15.8525 18.3447 15.9318L21.3294 23.9894L23.437 22.7911L19.7453 12.8258Z" fill="white"/>
<path d="M16 6.56564C16.0537 6.56564 16.1029 6.57885 16.1521 6.60529L24.1888 11.1738C24.2828 11.2267 24.3409 11.3236 24.3409 11.4293V20.5663C24.3409 20.672 24.2828 20.769 24.1888 20.8218L16.1521 25.3947C16.1074 25.4211 16.0537 25.4344 16 25.4344C15.9463 25.4344 15.897 25.4211 15.8479 25.3947L7.81567 20.8262C7.7217 20.7733 7.66353 20.6764 7.66353 20.5707V11.4293C7.66353 11.3236 7.7217 11.2267 7.81567 11.1738L15.8523 6.60529C15.897 6.57885 15.9508 6.56564 16 6.56564ZM16 5.23077C15.7136 5.23077 15.4272 5.30567 15.1721 5.45105L7.13551 10.0195C6.62539 10.3103 6.30768 10.8478 6.30768 11.4293V20.5663C6.30768 21.1478 6.62539 21.6897 7.13551 21.9805L15.1721 26.5489C15.4272 26.6943 15.7136 26.7692 16 26.7692C16.2863 26.7692 16.5728 26.6943 16.8278 26.5489L24.8644 21.9805C25.3791 21.6897 25.6923 21.1522 25.6923 20.5663V11.4293C25.6923 10.8478 25.3746 10.3059 24.8644 10.0151L16.8323 5.45105C16.5728 5.30567 16.2863 5.23077 16 5.23077Z" fill="white"/>
<path d="M10.6891 23.9982L11.4274 22.0069L12.913 23.2229L11.5259 24.474L10.6891 23.9982Z" fill="white"/>
<path d="M15.3241 10.7773H13.2881C13.136 10.7773 12.9972 10.8698 12.948 11.0107L8.58063 22.7998L10.6882 23.9981L15.4986 11.0152C15.5388 10.9006 15.4538 10.7773 15.3241 10.7773Z" fill="white"/>
<path d="M18.89 10.7773H16.854C16.7019 10.7773 16.5631 10.8698 16.5139 11.0107L11.5246 24.4739L13.6322 25.6723L19.0601 11.0196C19.1048 10.9006 19.0154 10.7773 18.89 10.7773Z" fill="white"/>
</g>
</g>
<defs>
<clipPath id="clip0_812_4137">
<rect width="19.3846" height="21.5385" fill="white" transform="translate(6.30768 5.23077)"/>
</clipPath>
</defs>
</svg>
