<svg width="32" height="32" viewBox="0 0 32 32" fill="none" xmlns="http://www.w3.org/2000/svg">
<circle cx="15.9968" cy="16" r="15" fill="#EDF0F4" stroke="white" stroke-width="2"/>
<circle cx="15.9968" cy="16" r="14" fill="white"/>
<path d="M24.7038 7.85138L23.9301 8.62437C27.7567 12.8052 27.7567 19.2128 23.9301 23.3937L24.7038 24.1667C28.9611 19.553 28.9611 12.447 24.7038 7.83334V7.85138Z" fill="#5A5564"/>
<path d="M8.62123 8.06666C12.8021 4.24008 19.2097 4.24008 23.3905 8.06666L24.1635 7.29297C19.5498 3.03566 12.4439 3.03566 7.8302 7.29297L8.62123 8.06666Z" fill="#5A5564"/>
<path d="M8.06353 23.3679C4.24167 19.1882 4.24167 12.7861 8.06353 8.60634L7.28984 7.83334C3.03254 12.447 3.03254 19.553 7.28984 24.1667L8.06353 23.3679Z" fill="#5A5564"/>
<path d="M23.3725 23.9333C19.1916 27.7599 12.7841 27.7599 8.60319 23.9333L7.8302 24.707C12.4439 28.9643 19.5498 28.9643 24.1635 24.707L23.3725 23.9333Z" fill="#5A5564"/>
<path fill-rule="evenodd" clip-rule="evenodd" d="M20.8056 13.5211C20.6535 11.9149 19.2839 11.376 17.5516 11.2118V9H16.2125V11.1707H15.1422V9H13.8132V11.2272H11.0969V12.6769C11.0969 12.6769 12.086 12.659 12.0708 12.6769C12.4415 12.6357 12.7779 12.8989 12.8317 13.2722V19.3688C12.824 19.4968 12.7654 19.6161 12.6693 19.6998C12.5751 19.785 12.4505 19.8276 12.3244 19.8178C12.3422 19.8332 11.3505 19.8178 11.3505 19.8178L11.0969 21.4369H13.7878V23.7H15.127V21.4702H16.1973V23.6897H17.5389V21.4523C19.8013 21.3137 21.3788 20.7492 21.5767 18.6067C21.7364 16.8824 20.935 16.1127 19.6542 15.8022C20.4328 15.4147 20.9147 14.6963 20.8056 13.5211ZM18.9288 18.3398C18.9288 19.8851 16.5263 19.8496 15.4299 19.8334H15.4298C15.3319 19.8319 15.2445 19.8306 15.1701 19.8306V16.8439C15.2631 16.8442 15.3764 16.8416 15.505 16.8388C16.632 16.8136 18.9288 16.7622 18.9288 18.3398ZM15.4006 15.4869C16.3193 15.5035 18.3074 15.5392 18.3074 14.1318C18.3074 12.6888 16.3813 12.7395 15.4447 12.7641C15.3404 12.7669 15.2483 12.7693 15.1726 12.7693V15.484C15.2375 15.484 15.3143 15.4854 15.4006 15.4869Z" fill="#F09242"/>
<path fill-rule="evenodd" clip-rule="evenodd" d="M1.99683 15.9991C1.99635 23.7305 8.26294 29.9986 15.9943 30C19.7082 30.0007 23.2702 28.5256 25.8963 25.8995C28.5225 23.2734 29.9975 19.7114 29.9968 15.9974C29.9954 8.26612 23.7273 1.99953 15.996 2C8.26465 2.00047 1.9973 8.26783 1.99683 15.9991ZM3.1039 15.9974C3.10107 8.87462 8.87145 3.09736 15.9943 3.0917C19.4184 3.08898 22.7031 4.44765 25.1248 6.86838C27.5465 9.28912 28.9065 12.5733 28.9051 15.9974C28.9023 23.1202 23.1273 28.8929 16.0045 28.8929C8.8817 28.8929 3.10673 23.1202 3.1039 15.9974Z" fill="#282138"/>
</svg>
