<svg width="32" height="32" viewBox="0 0 32 32" fill="none" xmlns="http://www.w3.org/2000/svg">
<rect x="1" y="1" width="30" height="30" rx="15" stroke="white" stroke-width="2"/>
<path d="M16 2C23.7327 2 30 8.26856 30 16C30 23.7327 23.7327 30 16 30C8.26856 30 2 23.7321 2 16C2 8.26856 8.26856 2 16 2Z" fill="#F5AC37"/>
<path d="M16 2C23.7327 2 30 8.26856 30 16C30 23.7327 23.7327 30 16 30C8.26856 30 2 23.7321 2 16C2 8.26856 8.26856 2 16 2Z" stroke="white"/>
<path fill-rule="evenodd" clip-rule="evenodd" d="M9.33265 23.7176V23.7699L9.33013 23.7718V23.7806H15.4028C16.0901 23.79 16.7749 23.7352 17.4503 23.6142C18.1616 23.475 18.8546 23.2558 19.5154 22.9584C19.802 22.8257 20.0769 22.6653 20.3543 22.5035C20.4245 22.4625 20.4949 22.4214 20.5657 22.3807C20.892 22.1482 21.2045 21.8962 21.5018 21.6285C22.3158 20.8926 22.9458 19.9747 23.3396 18.9509C23.366 18.8363 23.4782 18.7626 23.5935 18.7846H25.2472C25.3789 18.7846 25.4224 18.7405 25.4224 18.5918V17.5328C25.4312 17.4314 25.4312 17.3287 25.4224 17.2272C25.4224 17.2007 25.4292 17.1743 25.436 17.1479C25.4496 17.0953 25.4631 17.0428 25.4224 16.9904H24.0408C23.8738 16.9904 23.8738 16.9727 23.8738 16.824C23.9217 16.2911 23.9217 15.7562 23.8738 15.2232C23.865 15.0657 23.9003 15.0657 24.0225 15.0657H25.2302C25.3707 15.0657 25.423 15.0304 25.423 14.8906V13.4554C25.4187 13.3603 25.4165 13.3121 25.3912 13.2877C25.3653 13.2626 25.3151 13.2626 25.2132 13.2626H23.647C23.5248 13.2834 23.4076 13.2009 23.3856 13.0787C23.206 12.6093 22.9773 12.1601 22.702 11.7399C22.4248 11.3253 22.1123 10.936 21.7658 10.5763C21.3053 10.1164 20.7881 9.71694 20.2261 9.38619C19.3787 8.89415 18.452 8.54954 17.4874 8.37125C17.0194 8.28494 16.5462 8.23265 16.0699 8.21375H9.50779C9.33265 8.21375 9.33265 8.24903 9.33265 8.38889V13.1051C9.33265 13.2714 9.29737 13.2714 9.16632 13.2714H7.28513C7.14526 13.2714 7.14526 13.2973 7.14526 13.3937V14.9334C7.14526 15.0733 7.18873 15.0733 7.29395 15.0733H9.19278C9.33265 15.0733 9.33265 15.0991 9.33265 15.2043V16.8492C9.33265 16.9979 9.28855 16.9979 9.17514 16.9979H7.14526V18.6605C7.14526 18.8004 7.18873 18.8004 7.29395 18.8004H9.19278C9.33265 18.8004 9.33265 18.8174 9.33265 18.9314V20.9878V21.6789V23.7176ZM21.4168 13.1215C21.4319 13.1606 21.4319 13.204 21.4168 13.2437H21.459C21.4414 13.296 21.3538 13.3136 21.3538 13.3136H11.2567C11.0904 13.3136 11.0904 13.2784 11.0904 13.1473V10.0414C11.0904 9.92736 11.108 9.87507 11.239 9.87507H15.9376C16.4379 9.87066 16.9368 9.92295 17.4251 10.0326C18.3928 10.2619 19.293 10.718 20.0503 11.3625C20.2015 11.4753 20.3363 11.6082 20.4529 11.7563C20.6999 12.0013 20.9166 12.2741 21.1005 12.5702C21.2228 12.7435 21.328 12.9281 21.4168 13.1215ZM21.8358 16.9885H16.516H11.3008C11.1944 16.9885 11.142 16.9885 11.1161 16.9623C11.091 16.9368 11.091 16.8865 11.091 16.7875V15.2301C11.091 15.1073 11.1263 15.0638 11.2573 15.0638H21.8446C21.9586 15.0638 22.0109 15.1073 22.0109 15.2125C22.0544 15.7543 22.0544 16.2986 22.0109 16.8398C22.0027 16.9885 21.9492 16.9885 21.8358 16.9885ZM21.4168 18.8086C21.2681 18.7922 21.1182 18.7922 20.9695 18.8086H11.2661C11.1351 18.8086 11.091 18.8086 11.091 18.9837V22.0203C11.091 22.1602 11.091 22.1955 11.2661 22.1955H15.7461C15.9603 22.2119 16.1745 22.1967 16.3843 22.152C17.0345 22.1054 17.6739 21.9643 18.2838 21.7318C18.5055 21.6549 18.7197 21.5548 18.922 21.4344H18.9831C20.0333 20.8882 20.8863 20.0301 21.4244 18.9768C21.4244 18.9768 21.4855 18.8445 21.4168 18.8098V18.8086Z" fill="#FEFEFD"/>
</svg>
