<svg width="24" height="24" viewBox="0 0 24 24" fill="none" xmlns="http://www.w3.org/2000/svg">
<path d="M0 4C0 1.79086 1.79086 0 4 0H20C22.2091 0 24 1.79086 24 4V20C24 22.2091 22.2091 24 20 24H4C1.79086 24 0 22.2091 0 20V4Z" fill="#7B44E1"/>
<path d="M5.50208 10.516H7.50778V12.599C7.50778 12.77 7.56551 12.9162 7.68188 13.0326L7.68184 13.0326L7.68381 13.0344C7.808 13.1491 7.95734 13.2067 8.12833 13.2067C8.30685 13.2067 8.45768 13.1497 8.57479 13.0326C8.69189 12.9155 8.74889 12.7646 8.74889 12.5861V10.516H10.7803C10.9403 10.516 11.0774 10.4685 11.1859 10.3699L11.1859 10.3699L11.1882 10.3677C11.2955 10.2603 11.3494 10.1272 11.3494 9.97273C11.3494 9.81821 11.2955 9.68513 11.1882 9.57777C11.08 9.46957 10.9422 9.41654 10.7803 9.41654H8.74889V7.28209C8.74889 7.1041 8.69222 6.95362 8.57581 6.83666C8.46666 6.71822 8.31908 6.66153 8.14121 6.66153C7.96266 6.66153 7.80872 6.71848 7.68381 6.83378L7.68378 6.83374L7.68188 6.83564C7.56478 6.95274 7.50778 7.10358 7.50778 7.28209V9.41654H5.50208C5.34079 9.41654 5.2034 9.4692 5.09537 9.57665C4.98664 9.67607 4.93302 9.80583 4.93302 9.95985C4.93302 10.1144 4.98688 10.2474 5.09425 10.3548C5.20245 10.463 5.34022 10.516 5.50208 10.516Z" fill="white" stroke="white" stroke-width="0.133965"/>
<path d="M14.6582 16.9708L14.658 16.971L14.6622 16.975C14.8016 17.1102 14.9715 17.1781 15.1681 17.1781H18.3668C18.5629 17.1781 18.7283 17.1104 18.8578 16.974C18.9979 16.8377 19.0671 16.6639 19.0671 16.4581C19.0671 16.2522 18.998 16.0741 18.8598 15.9275C18.7309 15.7793 18.5649 15.7045 18.3668 15.7045H15.1681C14.9715 15.7045 14.8016 15.7724 14.6622 15.9076L14.6622 15.9075L14.6602 15.9097C14.5308 16.0465 14.4677 16.2199 14.4677 16.4246C14.4677 16.6393 14.5301 16.823 14.6582 16.9708Z" fill="white" stroke="white" stroke-width="0.133965"/>
<path d="M16.7188 8.64844L9.76702 17.2729" stroke="white" stroke-width="1.33965" stroke-linecap="round"/>
</svg>
