<svg width="32" height="32" viewBox="0 0 32 32" fill="none" xmlns="http://www.w3.org/2000/svg">
<circle cx="16" cy="16" r="15" fill="white" stroke="white" stroke-width="2"/>
<g clip-path="url(#clip0_812_4212)">
<path d="M9.81931 21.0426C8.69709 21.0426 7.77763 20.7812 7.06092 20.2582C6.35364 19.7259 6 18.9695 6 17.989C6 17.7836 6.02358 17.5314 6.07073 17.2326C6.19332 16.5603 6.36779 15.7525 6.59412 14.8094C7.23538 12.2414 8.89042 10.9574 11.5592 10.9574C12.2854 10.9574 12.9361 11.0788 13.5113 11.3216C14.0866 11.555 14.5392 11.9099 14.8693 12.3861C15.1993 12.853 15.3644 13.4133 15.3644 14.067C15.3644 14.2631 15.3408 14.5106 15.2937 14.8094C15.1522 15.6405 14.9824 16.4482 14.7844 17.2326C14.4543 18.512 13.8838 19.4691 13.0728 20.1041C12.2618 20.7298 11.1773 21.0426 9.81931 21.0426ZM10.0173 19.0256C10.5455 19.0256 10.9934 18.8715 11.3612 18.5633C11.7384 18.2552 12.0072 17.7836 12.1675 17.1486C12.3844 16.2708 12.5494 15.5051 12.6626 14.8514C12.7003 14.6553 12.7192 14.4545 12.7192 14.2491C12.7192 13.3993 12.2712 12.9744 11.3753 12.9744C10.8472 12.9744 10.3946 13.1285 10.0173 13.4367C9.64956 13.7448 9.38551 14.2164 9.2252 14.8514C9.05545 15.4771 8.8857 16.2428 8.71595 17.1486C8.67823 17.3353 8.65937 17.5314 8.65937 17.7369C8.65937 18.596 9.11203 19.0256 10.0173 19.0256Z" fill="#FF0420"/>
<path d="M16.6638 20.9025C16.56 20.9025 16.4799 20.8699 16.4233 20.8045C16.3762 20.7298 16.362 20.6458 16.3809 20.5524L18.333 11.4477C18.3518 11.3449 18.4037 11.2609 18.4886 11.1955C18.5735 11.1302 18.6631 11.0975 18.7574 11.0975H22.5201C23.5668 11.0975 24.4061 11.3123 25.038 11.7418C25.6792 12.1714 25.9999 12.7924 25.9999 13.6048C25.9999 13.8382 25.9716 14.081 25.915 14.3331C25.6792 15.407 25.203 16.2008 24.4863 16.7144C23.779 17.228 22.8077 17.4848 21.5723 17.4848H19.6627L19.012 20.5524C18.9931 20.6551 18.9412 20.7391 18.8563 20.8045C18.7715 20.8699 18.6819 20.9025 18.5876 20.9025H16.6638ZM21.6713 15.5518C22.0674 15.5518 22.4116 15.4444 22.704 15.2296C23.0058 15.0148 23.2038 14.7067 23.2981 14.3051C23.3264 14.1464 23.3405 14.0063 23.3405 13.8849C23.3405 13.6141 23.2604 13.4087 23.1001 13.2686C22.9398 13.1192 22.6662 13.0445 22.2796 13.0445H20.5821L20.0446 15.5518H21.6713Z" fill="#FF0420"/>
</g>
<defs>
<clipPath id="clip0_812_4212">
<rect width="20" height="10.0852" fill="white" transform="translate(6 10.9574)"/>
</clipPath>
</defs>
</svg>
