<svg width="24" height="24" viewBox="0 0 24 24" fill="none" xmlns="http://www.w3.org/2000/svg">
<path d="M0 4C0 1.79086 1.79086 0 4 0H20C22.2091 0 24 1.79086 24 4V20C24 22.2091 22.2091 24 20 24H4C1.79086 24 0 22.2091 0 20V4Z" fill="#7B44E1"/>
<path d="M5.99367 14.2663H6.48734V15.591H7.47468V14.2663H7.96835C8.09928 14.2663 8.22485 14.2198 8.31743 14.137C8.41001 14.0542 8.46203 13.9419 8.46203 13.8247V8.52601C8.46203 8.4089 8.41001 8.29659 8.31743 8.21378C8.22485 8.13097 8.09928 8.08445 7.96835 8.08445H7.47468V6.75977H6.48734V8.08445H5.99367C5.86274 8.08445 5.73717 8.13097 5.64459 8.21378C5.55201 8.29659 5.5 8.4089 5.5 8.52601V13.8247C5.5 13.9419 5.55201 14.0542 5.64459 14.137C5.73717 14.2198 5.86274 14.2663 5.99367 14.2663ZM6.48734 8.96757H7.47468V13.3832H6.48734V8.96757Z" fill="white"/>
<path d="M16.0316 14.2663H16.5253V15.591H17.5127V14.2663H18.0063C18.1373 14.2663 18.2628 14.2198 18.3554 14.137C18.448 14.0542 18.5 13.9419 18.5 13.8247V8.52601C18.5 8.4089 18.448 8.29659 18.3554 8.21378C18.2628 8.13097 18.1373 8.08445 18.0063 8.08445H17.5127V6.75977H16.5253V8.08445H16.0316C15.9007 8.08445 15.7752 8.13097 15.6826 8.21378C15.59 8.29659 15.538 8.4089 15.538 8.52601V13.8247C15.538 13.9419 15.59 14.0542 15.6826 14.137C15.7752 14.2198 15.9007 14.2663 16.0316 14.2663ZM16.5253 8.96757H17.5127V13.3832H16.5253V8.96757Z" fill="white"/>
<path d="M11.0127 16.9157H11.5063V18.2404H12.4937V16.9157H12.9873C13.1183 16.9157 13.2438 16.8692 13.3364 16.7863C13.429 16.7035 13.481 16.5912 13.481 16.4741V11.1754C13.481 11.0583 13.429 10.946 13.3364 10.8631C13.2438 10.7803 13.1183 10.7338 12.9873 10.7338H12.4937V9.40913H11.5063V10.7338H11.0127C10.8817 10.7338 10.7562 10.7803 10.6636 10.8631C10.571 10.946 10.519 11.0583 10.519 11.1754V16.4741C10.519 16.5912 10.571 16.7035 10.6636 16.7863C10.7562 16.8692 10.8817 16.9157 11.0127 16.9157ZM11.5063 11.6169H12.4937V16.0326H11.5063V11.6169Z" fill="white"/>
<path d="M6.48734 8.96757H7.47468V13.3832H6.48734V8.96757Z" fill="white"/>
<path d="M11.5063 11.6169H12.4937V16.0326H11.5063V11.6169Z" fill="white"/>
<path d="M16.5253 8.96757H17.5127V13.3832H16.5253V8.96757Z" fill="white"/>
</svg>
