<svg width="24" height="25" viewBox="0 0 24 25" fill="none" xmlns="http://www.w3.org/2000/svg">
<path d="M0 4.5C0 2.29086 1.79086 0.5 4 0.5H20C22.2091 0.5 24 2.29086 24 4.5V20.5C24 22.7091 22.2091 24.5 20 24.5H4C1.79086 24.5 0 22.7091 0 20.5V4.5Z" fill="#7B44E1"/>
<path d="M7.38134 10.5492C8.78029 10.5492 9.90575 9.42362 9.90575 8.02458C9.90575 6.62553 8.78029 5.5 7.38134 5.5C5.98239 5.5 4.85693 6.62553 4.85693 8.02458C4.85693 9.42362 5.98239 10.5492 7.38134 10.5492Z" fill="white"/>
<path d="M16.6186 19.4984C18.0176 19.4984 19.1431 18.3728 19.1431 16.9738C19.1431 15.5748 18.0176 14.4492 16.6186 14.4492C15.2197 14.4492 14.0942 15.5748 14.0942 16.9738C14.0942 18.3728 15.2197 19.4984 16.6186 19.4984Z" fill="white"/>
<path d="M12.4424 7.16797H15.3033C16.3218 7.16797 17.1474 7.99359 17.1474 9.01204V11.4887M17.1474 11.4887L15.9555 10.2449M17.1474 11.4887L18.3394 10.2449" stroke="white" stroke-width="0.922037" stroke-linecap="round" stroke-linejoin="round"/>
<path d="M11.8149 17.6426H8.95398C7.93553 17.6426 7.10991 16.817 7.10991 15.7985V13.3218M7.10991 13.3218L8.30185 14.5657M7.10991 13.3218L5.91797 14.5657" stroke="white" stroke-width="0.922037" stroke-linecap="round" stroke-linejoin="round"/>
</svg>
