<svg width="32" height="32" viewBox="0 0 32 32" fill="none" xmlns="http://www.w3.org/2000/svg">
<rect x="1" y="1" width="30" height="30" rx="15" stroke="white" stroke-width="2"/>
<path d="M16 30C23.7584 30 30 23.7584 30 16C30 8.24162 23.7584 2 16 2C8.24162 2 2 8.24162 2 16C2 23.7584 8.24162 30 16 30Z" fill="#2775CA"/>
<path d="M16 30C23.7584 30 30 23.7584 30 16C30 8.24162 23.7584 2 16 2C8.24162 2 2 8.24162 2 16C2 23.7584 8.24162 30 16 30Z" stroke="white"/>
<path d="M19.85 18.2166C19.85 16.175 18.625 15.475 16.175 15.1834C14.425 14.95 14.075 14.4834 14.075 13.6666C14.075 12.8499 14.6584 12.325 15.825 12.325C16.875 12.325 17.4584 12.675 17.75 13.55C17.8084 13.725 17.9834 13.8416 18.1584 13.8416H19.0916C19.325 13.8416 19.5 13.6666 19.5 13.4334V13.375C19.2666 12.0916 18.2166 11.1 16.875 10.9834V9.58338C16.875 9.35 16.7 9.175 16.4084 9.11662H15.5334C15.3 9.11662 15.125 9.29162 15.0666 9.58338V10.925C13.3166 11.1584 12.2084 12.325 12.2084 13.7834C12.2084 15.7084 13.375 16.4666 15.825 16.7584C17.4584 17.05 17.9834 17.4 17.9834 18.3334C17.9834 19.2668 17.1666 19.9084 16.0584 19.9084C14.5416 19.9084 14.0166 19.2666 13.8416 18.3916C13.7834 18.1584 13.6084 18.0416 13.4334 18.0416H12.4416C12.2084 18.0416 12.0334 18.2166 12.0334 18.45V18.5084C12.2666 19.9666 13.2 21.0166 15.125 21.3084V22.7084C15.125 22.9416 15.3 23.1166 15.5916 23.175H16.4666C16.7 23.175 16.875 23 16.9334 22.7084V21.3084C18.6834 21.0166 19.85 19.7916 19.85 18.2166Z" fill="white"/>
<path d="M19.85 18.2166C19.85 16.175 18.625 15.475 16.175 15.1834C14.425 14.95 14.075 14.4834 14.075 13.6666C14.075 12.8499 14.6584 12.325 15.825 12.325C16.875 12.325 17.4584 12.675 17.75 13.55C17.8084 13.725 17.9834 13.8416 18.1584 13.8416H19.0916C19.325 13.8416 19.5 13.6666 19.5 13.4334V13.375C19.2666 12.0916 18.2166 11.1 16.875 10.9834V9.58338C16.875 9.35 16.7 9.175 16.4084 9.11662H15.5334C15.3 9.11662 15.125 9.29162 15.0666 9.58338V10.925C13.3166 11.1584 12.2084 12.325 12.2084 13.7834C12.2084 15.7084 13.375 16.4666 15.825 16.7584C17.4584 17.05 17.9834 17.4 17.9834 18.3334C17.9834 19.2668 17.1666 19.9084 16.0584 19.9084C14.5416 19.9084 14.0166 19.2666 13.8416 18.3916C13.7834 18.1584 13.6084 18.0416 13.4334 18.0416H12.4416C12.2084 18.0416 12.0334 18.2166 12.0334 18.45V18.5084C12.2666 19.9666 13.2 21.0166 15.125 21.3084V22.7084C15.125 22.9416 15.3 23.1166 15.5916 23.175H16.4666C16.7 23.175 16.875 23 16.9334 22.7084V21.3084C18.6834 21.0166 19.85 19.7916 19.85 18.2166Z" stroke="white"/>
<path fill-rule="evenodd" clip-rule="evenodd" d="M7.83336 13.1416C6.1416 17.6334 8.47498 22.7084 13.025 24.3416C13.2 24.4584 13.375 24.6916 13.375 24.8666V25.6834C13.375 25.8 13.375 25.8584 13.3166 25.9166C13.2584 26.15 13.025 26.2666 12.7916 26.15C9.52498 25.1 7.0166 22.5916 5.9666 19.325C4.2166 13.7834 7.24998 7.89161 12.7916 6.14161C12.85 6.08337 12.9666 6.08337 13.025 6.08337C13.2584 6.14161 13.375 6.31661 13.375 6.54999V7.36661C13.375 7.65837 13.2584 7.83337 13.025 7.94999C10.6334 8.82499 8.70836 10.6916 7.83336 13.1416ZM18.6834 6.37499C18.7416 6.14161 18.975 6.02499 19.2084 6.14161C22.4166 7.19161 24.9834 9.69999 26.0334 13.025C27.7834 18.5666 24.75 24.4584 19.2084 26.2084C19.15 26.2666 19.0334 26.2666 18.975 26.2666C18.7416 26.2084 18.625 26.0334 18.625 25.8V24.9834C18.625 24.6916 18.7416 24.5166 18.975 24.4C21.3666 23.525 23.2916 21.6584 24.1666 19.2084C25.8584 14.7166 23.525 9.64161 18.975 8.00837C18.8 7.89161 18.625 7.65837 18.625 7.42499V6.60837C18.625 6.49161 18.625 6.43337 18.6834 6.37499Z" fill="white"/>
</svg>
