<svg width="33" height="32" viewBox="0 0 33 32" fill="none" xmlns="http://www.w3.org/2000/svg">
<path d="M30.8579 18.3867L30.5483 19.6286C28.5449 27.6646 20.4058 32.555 12.3689 30.5512L12.3689 30.5511C4.33525 28.5477 -0.555178 20.4082 1.44895 12.373L30.8579 18.3867ZM30.8579 18.3867H30.8034M30.8579 18.3867H30.8034M30.8034 18.3867C32.0394 10.77 27.2476 3.34884 19.6252 1.44864C11.5906 -0.554796 3.45162 4.33609 1.44901 12.3727L30.8034 18.3867Z" fill="#50AF95" stroke="white" stroke-width="2"/>
<path fill-rule="evenodd" clip-rule="evenodd" d="M17.7716 17.5872C17.6726 17.5946 17.1611 17.6251 16.0202 17.6251C15.1128 17.6251 14.4685 17.5979 14.2425 17.5872C10.7357 17.4329 8.11812 16.8225 8.11812 16.0916C8.11812 15.3607 10.7357 14.751 14.2425 14.5943V16.9792C14.4718 16.9957 15.1285 17.0345 16.0359 17.0345C17.1248 17.0345 17.6701 16.9891 17.7683 16.98V14.596C21.2676 14.7519 23.8794 15.3623 23.8794 16.0916C23.8794 16.8208 21.2685 17.4313 17.7683 17.5864L17.7716 17.5872ZM17.7715 14.3493V12.2152H22.6552V8.9608H9.3588V12.2152H14.2416V14.3485C10.2728 14.5308 7.28821 15.317 7.28821 16.259C7.28821 17.2011 10.2728 17.9865 14.2416 18.1696V25.0083H17.7707V18.1671C21.7304 17.9848 24.7101 17.1995 24.7101 16.2582C24.7101 15.317 21.7329 14.5316 17.7707 14.3485L17.7715 14.3493Z" fill="white"/>
</svg>
