<svg width="18" height="16" viewBox="0 0 18 16" fill="none" xmlns="http://www.w3.org/2000/svg">
<path d="M9.70998 6.37756H11.5129L12.4636 4.15837L13.4143 6.37756H15.2177C14.2713 8.75761 12.4636 13.7782 12.4636 13.7782C12.4636 13.7782 10.6671 8.76679 9.70998 6.37756Z" fill="url(#paint0_linear_305_2935)"/>
<path fill-rule="evenodd" clip-rule="evenodd" d="M9.43672 6.20552H7.13031L11.118 15.4958H13.8256L17.7969 6.20552H15.4902L13.2449 0.700195H11.6727L9.43672 6.20552ZM11.5129 6.37756H9.70998C10.6671 8.76679 12.4636 13.7782 12.4636 13.7782C12.4636 13.7782 14.2713 8.75761 15.2177 6.37756H13.4143L12.4636 4.15837L11.5129 6.37756Z" fill="white"/>
<path d="M8.50877 9.81775L6.70588 9.81775L5.75516 12.0369L4.80443 9.81775L3.00103 9.81775C3.94745 7.4377 5.75516 2.41708 5.75516 2.41708C5.75516 2.41708 7.55161 7.42852 8.50877 9.81775Z" fill="url(#paint1_linear_305_2935)"/>
<path fill-rule="evenodd" clip-rule="evenodd" d="M8.78202 9.98979L11.0884 9.98979L7.10078 0.69956L4.39312 0.69956L0.421875 9.98979L2.72858 9.98979L4.97382 15.4951L6.54602 15.4951L8.78202 9.98979ZM6.70588 9.81775L8.50877 9.81775C7.55161 7.42852 5.75516 2.41708 5.75516 2.41708C5.75516 2.41708 3.94745 7.4377 3.00103 9.81775L4.80443 9.81775L5.75516 12.0369L6.70588 9.81775Z" fill="white"/>
<defs>
<linearGradient id="paint0_linear_305_2935" x1="17.7925" y1="0.70025" x2="7.02332" y2="0.775286" gradientUnits="userSpaceOnUse">
<stop stop-color="#F5ABA1"/>
<stop offset="1" stop-color="#703AE6"/>
</linearGradient>
<linearGradient id="paint1_linear_305_2935" x1="0.426298" y1="15.4951" x2="11.1954" y2="15.42" gradientUnits="userSpaceOnUse">
<stop stop-color="#F5ABA1"/>
<stop offset="1" stop-color="#703AE6"/>
</linearGradient>
</defs>
</svg>
