<svg width="94" height="29" viewBox="0 0 94 29" fill="none" xmlns="http://www.w3.org/2000/svg">
<path d="M15.1895 2.73737L17.7295 4.20382L16.8011 11.0956L16.802 11.096L15.3935 21.5522L23.7445 15.1043L26.2845 16.5708L14.8782 25.3776L12.3382 23.9112L13.2665 17.0194L13.2657 17.019L14.6742 6.5628L6.32316 13.0107L3.78319 11.5442L15.1895 2.73737Z" fill="#181822"/>
<path d="M6.32316 13.0107L8.6699 14.3656L8.21494 17.7431L10.919 15.6641L13.2657 17.019L7.76147 21.2688L5.40142 19.9062L5.39481 19.9024L6.32316 13.0107Z" fill="#181822"/>
<path d="M23.7445 15.1043L21.3978 13.7495L21.8527 10.3719L19.1487 12.4509L16.802 11.096L22.3062 6.8462L24.6663 8.20878L24.6729 8.21261L23.7445 15.1043Z" fill="#181822"/>
<path d="M36.4083 20.0576L32.2839 7.98488H34.9806L37.9946 16.743L41.0003 7.98488H43.7054L39.5726 20.0576H36.4083ZM42.5344 20.0576L46.8258 7.98488H49.7731L54.0728 20.0576H51.2508L50.3575 17.4861H46.2831L45.3731 20.0576H42.5344ZM46.901 15.0398H49.6979L48.3036 10.715L46.901 15.0398ZM55.6574 20.0576V7.98488H58.5045L63.6141 15.3487V7.98488H66.4528V20.0576H63.8896L58.5045 12.3097V20.0576H55.6574ZM68.9311 20.0576V7.98488H71.7782L76.8878 15.3487V7.98488H79.7265V20.0576H77.1633L71.7782 12.3097V20.0576H68.9311ZM81.3282 20.0576L85.6196 7.98488H88.5668L92.8666 20.0576H90.0446L89.1512 17.4861H85.0769L84.1669 20.0576H81.3282ZM85.6947 15.0398H88.4917L87.0974 10.715L85.6947 15.0398Z" fill="#181822"/>
</svg>
