<svg width="94" height="29" viewBox="0 0 94 29" fill="none" xmlns="http://www.w3.org/2000/svg">
<path d="M15.1905 2.73737L17.7305 4.20382L16.8021 11.0956L16.8029 11.096L15.3945 21.5522L23.7455 15.1043L26.2855 16.5708L14.8792 25.3776L12.3392 23.9112L13.2675 17.0194L13.2667 17.019L14.6752 6.5628L6.32413 13.0107L3.78417 11.5442L15.1905 2.73737Z" fill="white"/>
<path d="M6.32413 13.0107L8.67087 14.3656L8.21592 17.7431L10.92 15.6641L13.2667 17.019L7.76245 21.2688L5.4024 19.9062L5.39579 19.9024L6.32413 13.0107Z" fill="white"/>
<path d="M23.7455 15.1043L21.3988 13.7495L21.8537 10.3719L19.1497 12.4509L16.8029 11.096L22.3072 6.8462L24.6672 8.20878L24.6739 8.21261L23.7455 15.1043Z" fill="white"/>
<path d="M36.4083 20.0566L32.2839 7.9839H34.9806L37.9946 16.7421L41.0003 7.9839H43.7054L39.5726 20.0566H36.4083ZM42.5344 20.0566L46.8258 7.9839H49.7731L54.0728 20.0566H51.2508L50.3575 17.4851H46.2831L45.3731 20.0566H42.5344ZM46.901 15.0389H49.6979L48.3036 10.714L46.901 15.0389ZM55.6574 20.0566V7.9839H58.5045L63.6141 15.3478V7.9839H66.4528V20.0566H63.8896L58.5045 12.3087V20.0566H55.6574ZM68.9311 20.0566V7.9839H71.7782L76.8878 15.3478V7.9839H79.7265V20.0566H77.1633L71.7782 12.3087V20.0566H68.9311ZM81.3282 20.0566L85.6196 7.9839H88.5668L92.8666 20.0566H90.0446L89.1512 17.4851H85.0769L84.1669 20.0566H81.3282ZM85.6947 15.0389H88.4917L87.0974 10.714L85.6947 15.0389Z" fill="white"/>
</svg>
